{"title":"Azhar (2016) - CAMRip - Hindi - x264 - AAC - Makintos13","uid":14616587,"size":747196329,"categoryP":"video","categoryS":"movies","magnet":"?xt=urn:btih:ebb1014d5249f36bef5d6b832f9e3aeb176c2031&amp;dn=Azhar+%282016%29+-+CAMRip+-+Hindi+-+x264+-+AAC+-+Makintos13+&amp;tr=udp%3A%2F%2Ftracker.leechers-paradise.org%3A6969&amp;tr=udp%3A%2F%2Fzer0day.ch%3A1337&amp;tr=udp%3A%2F%2Fopen.demonii.com%3A1337&amp;tr=udp%3A%2F%2Ftracker.coppersurfer.tk%3A6969&amp;tr=udp%3A%2F%2Fexodus.desync.com%3A6969","seeders":0,"leechers":0,"uploader":"makintos13","files":1,"time":1463204449,"description":"Azhar (2016) - CAMRip - Hindi - x264 - AAC - Makintos13 \r\n\r\nScreens:\r\n \nhttps://imgmak.com/T6r\r\n \nhttps://imgmak.com/T6B\r\n \nhttps://imgmak.com/T6I\r\n \nhttps://imgmak.com/T6q\r\n \nhttps://imgmak.com/T6t\r\n\r\nFormat : Matroska\r\nFormat version : Version 4 / Version 2\r\nFile size : 713 MiB\r\nDuration : 2h 5mn\r\nOverall bit rate : 794 Kbps\r\nSource : ICTV ( THANKS)\r\n\r\nVideo\r\nID : 2\r\nFormat : AVC\r\nFormat/Info : Advanced Video Codec\r\nFormat profile :   \r\nFormat settings, CABAC : Yes\r\nFormat settings, ReFrames : 4 frames\r\nCodec ID : V_MPEG4/ISO/AVC\r\nDuration : 2h 5mn\r\nBit rate : 728 Kbps\r\nWidth : 640 pixels\r\nHeight : 272 pixels\r\nDisplay aspect ratio : 2.35:1\r\nFrame rate mode : Constant\r\nFrame rate : 25.000 fps\r\nColor space : YUV\r\nChroma subsampling : 4:2:0\r\nBit depth : 8 bits\r\nScan type : Progressive\r\nBits/(Pixel*Frame) : 0.167\r\nStream size : 653 MiB (92%)\r\n\r\nAudio\r\nID : 1\r\nFormat : AAC\r\nFormat/Info : Advanced Audio Codec\r\nFormat profile : LC\r\nCodec ID : A_AAC\r\nDuration : 2h 5mn\r\nBit rate : 64.0 Kbps\r\nChannel(s) : 2 channels\r\nChannel positions : Front: L R\r\nSampling rate : 48.0 KHz\r\nFrame rate : 46.875 fps (1024 spf)\r\nCompression mode : Lossy\r\nDelay relative to video : 59ms\r\nStream size : 57.4 MiB (8%)\r\nTitle : Stereo\r\nDefault : Yes\r\nForced : No","torrent":{"xt":"urn:btih:ebb1014d5249f36bef5d6b832f9e3aeb176c2031","amp;dn":"Azhar+%282016%29+-+CAMRip+-+Hindi+-+x264+-+AAC+-+Makintos13+","amp;tr":["udp%3A%2F%2Ftracker.leechers-paradise.org%3A6969","udp%3A%2F%2Fzer0day.ch%3A1337","udp%3A%2F%2Fopen.demonii.com%3A1337","udp%3A%2F%2Ftracker.coppersurfer.tk%3A6969","udp%3A%2F%2Fexodus.desync.com%3A6969"],"infoHash":"ebb1014d5249f36bef5d6b832f9e3aeb176c2031","infoHashBuffer":{"type":"Buffer","data":[235,177,1,77,82,73,243,107,239,93,107,131,47,158,58,235,23,108,32,49]},"announce":[],"urlList":[]}}